<svg width="744" height="180" viewBox="0 0 744 180" fill="none" xmlns="http://www.w3.org/2000/svg">
<path d="M397.183 127.183V140.863H328.32V127.183H357.094V77.4515H330.763V63.7715H372.574V127.157H397.183V127.183ZM372.574 53.1515V37.5943H356.246V53.1515H372.574ZM633.96 140.837V127.157H608.76V59.9657C608.76 52.5857 606.754 47.0315 602.743 43.2515C598.834 39.4715 593.049 37.5686 585.411 37.5686H567.669V51.2486H585.411C588.189 51.2486 590.22 51.9686 591.557 53.4343C592.894 54.9 593.563 57.06 593.563 59.9657V127.157H565.509V140.837H633.96ZM537.969 129.78C535.86 133.843 532.903 137.006 529.097 139.243C525.292 141.48 520.663 142.586 515.211 142.586C508.526 142.586 502.843 140.837 498.189 137.34C493.611 133.766 490.114 128.906 487.749 122.811C485.46 116.691 484.303 109.877 484.303 102.317C484.303 94.7572 485.46 87.9172 487.749 81.8229C490.14 75.7029 493.611 70.92 498.189 67.4229C502.869 63.8486 508.551 62.0486 515.211 62.0486C520.354 62.0486 524.803 63.1029 528.531 65.2372C532.26 67.2686 535.269 70.2772 537.557 74.2629V63.7972H552.729V140.863H538.406L537.969 129.78ZM530.229 79.3286C527.374 76.9115 523.826 75.7029 519.634 75.7029C513.231 75.7029 508.423 78.2229 505.183 83.2629C502.046 88.2 500.451 94.5514 500.451 102.317C500.451 109.877 502.02 116.126 505.183 121.063C508.423 126 513.257 128.469 519.634 128.469C523.826 128.469 527.374 127.311 530.229 124.971C533.083 122.554 535.191 119.34 536.529 115.38C537.969 111.394 538.663 107.049 538.663 102.291C538.663 97.4572 537.943 93.0343 536.529 89.0486C535.191 85.0115 533.109 81.7457 530.229 79.3286ZM410.143 63.7715V140.837H425.469V94.8857C425.469 88.38 426.96 83.4429 429.917 80.0486C432.874 76.5515 436.989 74.8029 442.234 74.8029C447.094 74.8029 450.643 76.5 452.829 79.8943C455.117 83.1857 456.274 88.1743 456.274 94.86V140.811H471.446V91.2343C471.446 82.4143 469.311 75.3429 465.017 69.9943C460.826 64.6715 454.706 61.9972 446.683 61.9972C440.383 61.9972 435.086 63.9 430.791 67.68C428.194 69.9686 426.163 72.9 424.723 76.5L424.209 63.7715H410.143ZM239.657 63.7715V140.837H254.829V93.0086C254.829 89.0229 255.111 85.68 255.677 82.98C256.243 80.2543 257.117 78.2229 258.249 76.8857C259.483 75.5229 260.923 74.8543 262.543 74.8543C265.217 74.8543 267.069 76.2686 268.123 79.0715C269.28 81.7972 269.846 86.4514 269.846 93.0343V140.863H285.017V93.0343C285.017 89.0486 285.3 85.7057 285.866 83.0057C286.534 80.28 287.486 78.2486 288.72 76.9115C290.057 75.5486 291.626 74.88 293.451 74.88C295.946 74.88 297.643 76.2943 298.594 79.0972C299.649 81.8229 300.163 86.4772 300.163 93.06V140.889H315.334V93.06C315.334 82.5943 313.894 74.8286 311.04 69.7886C308.263 64.6457 304.02 62.0743 298.311 62.0743C294.506 62.0743 291.214 63.2829 288.437 65.7C285.763 68.1172 283.706 71.5115 282.291 75.8829C281.134 71.1258 279.489 67.6543 277.277 65.4172C275.091 63.18 272.263 62.0743 268.843 62.0743C261.591 62.0743 256.474 66.1886 253.517 74.4429L253.08 63.8229H239.657V63.7715ZM192.343 78.4029L191.314 63.7715H161.537V77.4515H180.72V127.183H161.537V140.863H219.806V127.183H196.174V95.7857C196.174 91.62 196.689 88.2257 197.743 85.6029C198.9 82.8772 200.649 80.8458 203.04 79.4829C205.431 78.12 208.491 77.4515 212.194 77.4515H226.8V63.7715H211.191C205.457 63.7715 200.983 65.3143 197.743 68.4257C195.3 70.7915 193.5 74.1086 192.343 78.4029ZM83.2114 123.531C86.1686 129.651 90.3086 134.331 95.6572 137.649C101.006 140.94 107.254 142.586 114.403 142.586C122.22 142.586 129.137 140.349 135.154 135.9C141.274 131.451 145.363 125.537 147.471 118.157L131.297 116.563C129.78 120.343 127.491 123.3 124.431 125.434C121.474 127.466 118.131 128.494 114.403 128.494C108.874 128.494 104.426 126.566 101.083 122.683C97.74 118.8 95.7857 113.374 95.22 106.406H148.757L148.603 101.469C148.32 92.6486 146.597 85.2686 143.46 79.3543C140.323 73.44 136.209 69.0686 131.143 66.2657C126.077 63.4629 120.497 62.0486 114.403 62.0486C107.254 62.0486 101.006 63.6943 95.6572 66.9858C90.3086 70.2772 86.1686 74.9829 83.2114 81.1029C80.2543 87.1972 78.7629 94.2943 78.7629 102.343C78.7629 110.391 80.2543 117.437 83.2114 123.531ZM95.5286 94.8857C96.5829 88.8686 98.7172 84.2657 101.983 81.0772C105.223 77.7857 109.389 76.14 114.429 76.14C118.903 76.14 122.734 77.6829 125.871 80.7943C129.009 83.8029 131.066 88.5086 132.017 94.9115H95.5286V94.8857ZM36.72 63.7715V43.4057H21.3943V63.7715H0.0771484V77.4515H21.3943V117.874C21.3943 125.254 23.2972 130.911 27.1286 134.897C31.0372 138.883 37.0029 140.863 45.0257 140.863H65.6486V127.183H46.62C43.4829 127.183 41.04 126.257 39.3172 124.431C37.5943 122.58 36.7457 120.009 36.7457 116.717V77.4515H65.9572V63.7715H36.72Z" fill="white"/>
<path d="M397.183 127.183V140.863H328.32V127.183H357.094V77.4515H330.763V63.7715H372.574V127.157H397.183V127.183ZM372.574 53.1515V37.5943H356.246V53.1515H372.574ZM633.96 140.837V127.157H608.76V59.9657C608.76 52.5857 606.754 47.0315 602.743 43.2515C598.834 39.4715 593.049 37.5686 585.411 37.5686H567.669V51.2486H585.411C588.189 51.2486 590.22 51.9686 591.557 53.4343C592.894 54.9 593.563 57.06 593.563 59.9657V127.157H565.509V140.837H633.96ZM537.969 129.78C535.86 133.843 532.903 137.006 529.097 139.243C525.292 141.48 520.663 142.586 515.211 142.586C508.526 142.586 502.843 140.837 498.189 137.34C493.611 133.766 490.114 128.906 487.749 122.811C485.46 116.691 484.303 109.877 484.303 102.317C484.303 94.7572 485.46 87.9172 487.749 81.8229C490.14 75.7029 493.611 70.92 498.189 67.4229C502.869 63.8486 508.551 62.0486 515.211 62.0486C520.354 62.0486 524.803 63.1029 528.531 65.2372C532.26 67.2686 535.269 70.2772 537.557 74.2629V63.7972H552.729V140.863H538.406L537.969 129.78ZM530.229 79.3286C527.374 76.9115 523.826 75.7029 519.634 75.7029C513.231 75.7029 508.423 78.2229 505.183 83.2629C502.046 88.2 500.451 94.5514 500.451 102.317C500.451 109.877 502.02 116.126 505.183 121.063C508.423 126 513.257 128.469 519.634 128.469C523.826 128.469 527.374 127.311 530.229 124.971C533.083 122.554 535.191 119.34 536.529 115.38C537.969 111.394 538.663 107.049 538.663 102.291C538.663 97.4572 537.943 93.0343 536.529 89.0486C535.191 85.0115 533.109 81.7457 530.229 79.3286ZM410.143 63.7715V140.837H425.469V94.8857C425.469 88.38 426.96 83.4429 429.917 80.0486C432.874 76.5515 436.989 74.8029 442.234 74.8029C447.094 74.8029 450.643 76.5 452.829 79.8943C455.117 83.1857 456.274 88.1743 456.274 94.86V140.811H471.446V91.2343C471.446 82.4143 469.311 75.3429 465.017 69.9943C460.826 64.6715 454.706 61.9972 446.683 61.9972C440.383 61.9972 435.086 63.9 430.791 67.68C428.194 69.9686 426.163 72.9 424.723 76.5L424.209 63.7715H410.143ZM239.657 63.7715V140.837H254.829V93.0086C254.829 89.0229 255.111 85.68 255.677 82.98C256.243 80.2543 257.117 78.2229 258.249 76.8857C259.483 75.5229 260.923 74.8543 262.543 74.8543C265.217 74.8543 267.069 76.2686 268.123 79.0715C269.28 81.7972 269.846 86.4514 269.846 93.0343V140.863H285.017V93.0343C285.017 89.0486 285.3 85.7057 285.866 83.0057C286.534 80.28 287.486 78.2486 288.72 76.9115C290.057 75.5486 291.626 74.88 293.451 74.88C295.946 74.88 297.643 76.2943 298.594 79.0972C299.649 81.8229 300.163 86.4772 300.163 93.06V140.889H315.334V93.06C315.334 82.5943 313.894 74.8286 311.04 69.7886C308.263 64.6457 304.02 62.0743 298.311 62.0743C294.506 62.0743 291.214 63.2829 288.437 65.7C285.763 68.1172 283.706 71.5115 282.291 75.8829C281.134 71.1258 279.489 67.6543 277.277 65.4172C275.091 63.18 272.263 62.0743 268.843 62.0743C261.591 62.0743 256.474 66.1886 253.517 74.4429L253.08 63.8229H239.657V63.7715ZM192.343 78.4029L191.314 63.7715H161.537V77.4515H180.72V127.183H161.537V140.863H219.806V127.183H196.174V95.7857C196.174 91.62 196.689 88.2257 197.743 85.6029C198.9 82.8772 200.649 80.8458 203.04 79.4829C205.431 78.12 208.491 77.4515 212.194 77.4515H226.8V63.7715H211.191C205.457 63.7715 200.983 65.3143 197.743 68.4257C195.3 70.7915 193.5 74.1086 192.343 78.4029ZM83.2114 123.531C86.1686 129.651 90.3086 134.331 95.6572 137.649C101.006 140.94 107.254 142.586 114.403 142.586C122.22 142.586 129.137 140.349 135.154 135.9C141.274 131.451 145.363 125.537 147.471 118.157L131.297 116.563C129.78 120.343 127.491 123.3 124.431 125.434C121.474 127.466 118.131 128.494 114.403 128.494C108.874 128.494 104.426 126.566 101.083 122.683C97.74 118.8 95.7857 113.374 95.22 106.406H148.757L148.603 101.469C148.32 92.6486 146.597 85.2686 143.46 79.3543C140.323 73.44 136.209 69.0686 131.143 66.2657C126.077 63.4629 120.497 62.0486 114.403 62.0486C107.254 62.0486 101.006 63.6943 95.6572 66.9858C90.3086 70.2772 86.1686 74.9829 83.2114 81.1029C80.2543 87.1972 78.7629 94.2943 78.7629 102.343C78.7629 110.391 80.2543 117.437 83.2114 123.531ZM95.5286 94.8857C96.5829 88.8686 98.7172 84.2657 101.983 81.0772C105.223 77.7857 109.389 76.14 114.429 76.14C118.903 76.14 122.734 77.6829 125.871 80.7943C129.009 83.8029 131.066 88.5086 132.017 94.9115H95.5286V94.8857ZM36.72 63.7715V43.4057H21.3943V63.7715H0.0771484V77.4515H21.3943V117.874C21.3943 125.254 23.2972 130.911 27.1286 134.897C31.0372 138.883 37.0029 140.863 45.0257 140.863H65.6486V127.183H46.62C43.4829 127.183 41.04 126.257 39.3172 124.431C37.5943 122.58 36.7457 120.009 36.7457 116.717V77.4515H65.9572V63.7715H36.72Z" fill="white"/>
<path d="M742.732 0.231445H659.649V179.64H742.732V0.231445Z" fill="#FF5C00"/>
</svg>
