<svg viewBox="0 0 85 15" fill="none" xmlns="http://www.w3.org/2000/svg">
<path d="M52.9577 12.4577V14.2817H43.776V12.4577H47.6125V5.82687H44.1017V4.00287H49.6765V12.4543H52.9577V12.4577ZM49.6765 2.58687V0.512585H47.4994V2.58687H49.6765ZM84.528 14.2783V12.4543H81.168V3.49544C81.168 2.51144 80.9005 1.77087 80.3657 1.26687C79.8445 0.762869 79.0731 0.509155 78.0548 0.509155H75.6891V2.33316H78.0548C78.4251 2.33316 78.696 2.42915 78.8743 2.62458C79.0525 2.82001 79.1417 3.10801 79.1417 3.49544V12.4543H75.4011V14.2783H84.528ZM71.7291 12.804C71.448 13.3457 71.0537 13.7674 70.5463 14.0657C70.0388 14.364 69.4217 14.5114 68.6948 14.5114C67.8034 14.5114 67.0457 14.2783 66.4251 13.812C65.8148 13.3354 65.3485 12.6874 65.0331 11.8749C64.728 11.0589 64.5737 10.1503 64.5737 9.1423C64.5737 8.1343 64.728 7.2223 65.0331 6.40973C65.352 5.59373 65.8148 4.95601 66.4251 4.48973C67.0491 4.01316 67.8068 3.77315 68.6948 3.77315C69.3805 3.77315 69.9737 3.91373 70.4708 4.1983C70.968 4.46916 71.3691 4.8703 71.6743 5.40173V4.0063H73.6971V14.2817H71.7874L71.7291 12.804ZM70.6971 6.07715C70.3165 5.75487 69.8434 5.59373 69.2845 5.59373C68.4308 5.59373 67.7897 5.92973 67.3577 6.60173C66.9394 7.26001 66.7268 8.10687 66.7268 9.1423C66.7268 10.1503 66.936 10.9834 67.3577 11.6417C67.7897 12.3 68.4343 12.6292 69.2845 12.6292C69.8434 12.6292 70.3165 12.4749 70.6971 12.1629C71.0777 11.8406 71.3588 11.412 71.5371 10.884C71.7291 10.3526 71.8217 9.77315 71.8217 9.13887C71.8217 8.4943 71.7257 7.90458 71.5371 7.37316C71.3588 6.83487 71.0811 6.39944 70.6971 6.07715ZM54.6857 4.00287V14.2783H56.7291V8.15144C56.7291 7.28401 56.928 6.62573 57.3223 6.17315C57.7165 5.70687 58.2651 5.47372 58.9645 5.47372C59.6125 5.47372 60.0857 5.70001 60.3771 6.15258C60.6823 6.59144 60.8365 7.25658 60.8365 8.14801V14.2749H62.8594V7.66458C62.8594 6.48858 62.5748 5.54573 62.0023 4.83258C61.4434 4.12287 60.6274 3.7663 59.5577 3.7663C58.7177 3.7663 58.0114 4.02001 57.4388 4.52401C57.0925 4.82915 56.8217 5.22001 56.6297 5.70001L56.5611 4.00287H54.6857ZM31.9543 4.00287V14.2783H33.9771V7.90115C33.9771 7.36973 34.0148 6.92401 34.0903 6.56401C34.1657 6.20058 34.2823 5.92973 34.4331 5.75144C34.5977 5.56973 34.7897 5.48058 35.0057 5.48058C35.3623 5.48058 35.6091 5.66915 35.7497 6.04287C35.904 6.4063 35.9794 7.02687 35.9794 7.90458V14.2817H38.0023V7.90458C38.0023 7.37315 38.04 6.92744 38.1154 6.56744C38.2045 6.20401 38.3314 5.93316 38.496 5.75487C38.6743 5.57316 38.8834 5.48401 39.1268 5.48401C39.4594 5.48401 39.6857 5.67258 39.8125 6.0463C39.9531 6.40973 40.0217 7.0303 40.0217 7.90801V14.2852H42.0445V7.90801C42.0445 6.51258 41.8525 5.47715 41.472 4.80515C41.1017 4.11944 40.536 3.77658 39.7748 3.77658C39.2674 3.77658 38.8285 3.93773 38.4583 4.26001C38.1017 4.5823 37.8274 5.03487 37.6388 5.61773C37.4845 4.98344 37.2651 4.52058 36.9703 4.2223C36.6788 3.92401 36.3017 3.77658 35.8457 3.77658C34.8788 3.77658 34.1965 4.32515 33.8023 5.42573L33.744 4.00973H31.9543V4.00287ZM25.6457 5.95373L25.5085 4.00287H21.5383V5.82687H24.096V12.4577H21.5383V14.2817H29.3074V12.4577H26.1565V8.27144C26.1565 7.71601 26.2251 7.26344 26.3657 6.91372C26.52 6.5503 26.7531 6.27944 27.072 6.09773C27.3908 5.91601 27.7988 5.82687 28.2925 5.82687H30.24V4.00287H28.1588C27.3943 4.00287 26.7977 4.20858 26.3657 4.62344C26.04 4.93887 25.8 5.38115 25.6457 5.95373ZM11.0948 11.9709C11.4891 12.7869 12.0411 13.4109 12.7543 13.8532C13.4674 14.292 14.3005 14.5114 15.2537 14.5114C16.296 14.5114 17.2183 14.2132 18.0205 13.62C18.8365 13.0269 19.3817 12.2383 19.6628 11.2543L17.5063 11.0417C17.304 11.5457 16.9988 11.94 16.5908 12.2246C16.1965 12.4954 15.7508 12.6326 15.2537 12.6326C14.5165 12.6326 13.9234 12.3754 13.4777 11.8577C13.032 11.34 12.7714 10.6166 12.696 9.68744H19.8343L19.8137 9.02916C19.776 7.85316 19.5463 6.86915 19.128 6.08058C18.7097 5.29201 18.1611 4.70915 17.4857 4.33544C16.8103 3.96173 16.0663 3.77315 15.2537 3.77315C14.3005 3.77315 13.4674 3.99258 12.7543 4.43144C12.0411 4.8703 11.4891 5.49773 11.0948 6.31373C10.7005 7.1263 10.5017 8.07258 10.5017 9.14573C10.5017 10.2189 10.7005 11.1583 11.0948 11.9709ZM12.7371 8.15144C12.8777 7.34915 13.1623 6.73544 13.5977 6.3103C14.0297 5.87144 14.5851 5.65201 15.2571 5.65201C15.8537 5.65201 16.3645 5.85773 16.7828 6.27258C17.2011 6.67373 17.4754 7.30116 17.6023 8.15487H12.7371V8.15144ZM4.89597 4.00287V1.28744H2.85254V4.00287H0.0102539V5.82687H2.85254V11.2166C2.85254 12.2006 3.10626 12.9549 3.61711 13.4863C4.13826 14.0177 4.93368 14.2817 6.0034 14.2817H8.75311V12.4577H6.21597C5.79768 12.4577 5.47197 12.3343 5.24225 12.0909C5.01254 11.844 4.8994 11.5012 4.8994 11.0623V5.82687H8.79426V4.00287H4.89597Z" fill="white"/>
</svg>

